<?xml version="1.0" encoding="utf-8"?>
<!-- Generator: Adobe Illustrator 19.2.0, SVG Export Plug-In . SVG Version: 6.00 Build 0)  -->
<svg version="1.1" id="Ebene_1" xmlns="http://www.w3.org/2000/svg" xmlns:xlink="http://www.w3.org/1999/xlink" x="0px" y="0px"
	 viewBox="0 0 595.3 841.9" style="enable-background:new 0 0 595.3 841.9;" xml:space="preserve">
<g>
	<defs>
		<rect id="SVGID_1_" x="191" y="395.8" width="212.6" height="52.1"/>
	</defs>
	<clipPath id="SVGID_2_">
		<use xlink:href="#SVGID_1_"  style="overflow:visible;"/>
	</clipPath>
	<path style="clip-path:url(#SVGID_2_);" d="M403.6,447.9H191v-52.1h212.6V447.9z M193.3,445.5h207.9v-47.5H193.3V445.5z"/>
	<path style="clip-path:url(#SVGID_2_);" d="M374.7,416.6h0.8c1.6,0,2.7,0.7,2.7,2.5v0.2c0,1.8-1.1,2.7-2.7,2.7h-0.8V416.6z
		 M370,432.2h4.7v-6.5h1.2l2.4,6.5h4.8l-3.1-7.8c1.6-1,2.7-2.6,2.7-5v-0.3c0-4.3-3-6.5-7.1-6.5H370V432.2z M356.6,432.2h10.6v-3.9
		h-6v-4h4.7v-3.8h-4.7v-4h5.8v-3.9h-10.4V432.2z M349.6,428.2c-0.4,0.1-0.9,0.3-1.5,0.3c-2.2,0-3.5-2.1-3.5-6v-0.3
		c0-3.8,1.4-5.7,3.7-5.7c1.2,0,1.9,0.5,2.5,1l2.4-3.5c-1.4-1-2.9-1.7-5.1-1.7c-5.1,0-8.3,3.4-8.3,9.7v0.6c0,6.5,3.4,9.8,8.4,9.8
		c2.7,0,4.5-1,5.6-1.9v-9.1h-6.3v3.7h2.2V428.2z M329,432.2h10.7v-4.1h-6v-15.5H329V432.2z M319.1,428.4c-1.7,0-3-1.7-3-5.8v-0.5
		c0-4,1.3-5.8,3-5.8c1.7,0,3,1.7,3,5.8v0.5C322.1,426.7,320.8,428.4,319.1,428.4 M319.1,432.4c4.1,0,7.8-3,7.8-9.8v-0.6
		c0-6.7-3.7-9.7-7.8-9.7s-7.8,3.1-7.8,9.7v0.6C311.3,429.4,315,432.4,319.1,432.4 M299.7,432.2h4.7v-7.6h4.6v-3.9h-4.6v-4.3h5.4
		v-3.9h-10.1V432.2z M288.8,416.6h0.8c1.6,0,2.7,0.7,2.7,2.5v0.2c0,1.8-1.1,2.7-2.7,2.7h-0.8V416.6z M284.1,432.2h4.7v-6.5h1.2
		l2.5,6.5h4.8l-3.1-7.8c1.6-1,2.7-2.6,2.7-5v-0.3c0-4.3-3-6.5-7.1-6.5h-5.7V432.2z M273.7,432.4c4,0,6.7-2.2,6.7-6.7v-13.2h-4.7
		v13.2c0,1.6-0.5,2.5-2,2.5c-1.5,0-2-1-2-2.5v-13.2H267v13.2C267,430.2,269.7,432.4,273.7,432.4 M256.7,432.2h4.7v-15.5h3.7v-4.1
		H253v4.1h3.7V432.2z M243.7,432.2h10.7v-4.1h-6v-15.5h-4.7V432.2z M234.5,432.4c4,0,6.7-2.2,6.7-6.7v-13.2h-4.7v13.2
		c0,1.6-0.5,2.5-2,2.5c-1.5,0-2-1-2-2.5v-13.2h-4.7v13.2C227.8,430.2,230.5,432.4,234.5,432.4 M225.9,412.6H221l-3,5.6
		c-0.3,0.6-0.8,1.6-1.2,2.5v-8.1h-4.7v19.6h4.7v-5.4l0.8-1.4l3.2,6.7h5.3l-5.1-10.5L225.9,412.6z"/>
</g>
<g>
</g>
<g>
</g>
<g>
</g>
<g>
</g>
<g>
</g>
<g>
</g>
</svg>
